<mxfile host="app.diagrams.net" modified="2023-02-24T09:29:00.273Z" agent="5.0 (Macintosh; Intel Mac OS X 10_15_7) AppleWebKit/605.1.15 (KHTML, like Gecko) Version/16.2 Safari/605.1.15" etag="9MIrAe5jf_mAqkd6KM2f" version="20.8.23" type="github">
  <diagram name="第 1 页" id="wSYVRvOqPTS_bNU8-5IR">
    <mxGraphModel dx="1164" dy="608" grid="0" gridSize="10" guides="1" tooltips="1" connect="1" arrows="1" fold="1" page="1" pageScale="1" pageWidth="827" pageHeight="1169" math="0" shadow="0">
      <root>
        <mxCell id="0" />
        <mxCell id="1" parent="0" />
        <mxCell id="ezqPZjXfEJtGR1s8z3-x-3" style="edgeStyle=orthogonalEdgeStyle;rounded=0;orthogonalLoop=1;jettySize=auto;html=1;exitX=1;exitY=0.5;exitDx=0;exitDy=0;entryX=0;entryY=0.5;entryDx=0;entryDy=0;startArrow=none;" parent="1" source="ezqPZjXfEJtGR1s8z3-x-19" target="ezqPZjXfEJtGR1s8z3-x-12" edge="1">
          <mxGeometry relative="1" as="geometry" />
        </mxCell>
        <mxCell id="ezqPZjXfEJtGR1s8z3-x-6" value="Refresh page" style="shape=card;whiteSpace=wrap;html=1;" parent="1" vertex="1">
          <mxGeometry x="600" y="360" width="120" height="80" as="geometry" />
        </mxCell>
        <mxCell id="ezqPZjXfEJtGR1s8z3-x-10" style="edgeStyle=orthogonalEdgeStyle;rounded=0;orthogonalLoop=1;jettySize=auto;html=1;exitX=1;exitY=0.5;exitDx=0;exitDy=0;" parent="1" source="ezqPZjXfEJtGR1s8z3-x-12" target="ezqPZjXfEJtGR1s8z3-x-6" edge="1">
          <mxGeometry relative="1" as="geometry" />
        </mxCell>
        <mxCell id="ezqPZjXfEJtGR1s8z3-x-20" style="edgeStyle=orthogonalEdgeStyle;rounded=0;orthogonalLoop=1;jettySize=auto;html=1;exitX=0;exitY=1;exitDx=0;exitDy=0;entryX=0.5;entryY=0;entryDx=0;entryDy=0;" parent="1" source="ezqPZjXfEJtGR1s8z3-x-12" target="ezqPZjXfEJtGR1s8z3-x-16" edge="1">
          <mxGeometry relative="1" as="geometry" />
        </mxCell>
        <mxCell id="ezqPZjXfEJtGR1s8z3-x-31" style="edgeStyle=orthogonalEdgeStyle;rounded=0;orthogonalLoop=1;jettySize=auto;html=1;exitX=0.5;exitY=0;exitDx=0;exitDy=0;entryX=0.5;entryY=1;entryDx=0;entryDy=0;" parent="1" source="ezqPZjXfEJtGR1s8z3-x-12" target="ezqPZjXfEJtGR1s8z3-x-29" edge="1">
          <mxGeometry relative="1" as="geometry" />
        </mxCell>
        <mxCell id="ezqPZjXfEJtGR1s8z3-x-12" value="Delete Buzz&lt;br&gt;System" style="ellipse;whiteSpace=wrap;html=1;aspect=fixed;" parent="1" vertex="1">
          <mxGeometry x="400" y="360" width="80" height="80" as="geometry" />
        </mxCell>
        <mxCell id="ezqPZjXfEJtGR1s8z3-x-13" value="buzz id" style="text;html=1;align=center;verticalAlign=middle;resizable=0;points=[];autosize=1;strokeColor=none;fillColor=none;" parent="1" vertex="1">
          <mxGeometry x="312" y="377" width="56" height="26" as="geometry" />
        </mxCell>
        <mxCell id="ezqPZjXfEJtGR1s8z3-x-21" style="edgeStyle=orthogonalEdgeStyle;rounded=0;orthogonalLoop=1;jettySize=auto;html=1;exitX=0.75;exitY=0;exitDx=0;exitDy=0;entryX=0.274;entryY=0.966;entryDx=0;entryDy=0;entryPerimeter=0;" parent="1" source="ezqPZjXfEJtGR1s8z3-x-16" target="ezqPZjXfEJtGR1s8z3-x-12" edge="1">
          <mxGeometry relative="1" as="geometry" />
        </mxCell>
        <mxCell id="ezqPZjXfEJtGR1s8z3-x-16" value="Buzz entities&amp;nbsp;(database)" style="shape=partialRectangle;whiteSpace=wrap;html=1;left=0;right=0;fillColor=none;rounded=0;strokeColor=default;fontFamily=Helvetica;fontSize=12;fontColor=default;" parent="1" vertex="1">
          <mxGeometry x="230" y="530" width="140" height="27" as="geometry" />
        </mxCell>
        <mxCell id="ezqPZjXfEJtGR1s8z3-x-17" value="buzz id" style="text;html=1;align=center;verticalAlign=middle;resizable=0;points=[];autosize=1;strokeColor=none;fillColor=none;" parent="1" vertex="1">
          <mxGeometry x="242" y="462" width="56" height="26" as="geometry" />
        </mxCell>
        <mxCell id="ezqPZjXfEJtGR1s8z3-x-19" value="Delete Buzz button" style="rounded=0;whiteSpace=wrap;html=1;" parent="1" vertex="1">
          <mxGeometry x="160" y="370" width="120" height="60" as="geometry" />
        </mxCell>
        <mxCell id="ezqPZjXfEJtGR1s8z3-x-22" value="user id, email,&lt;br&gt;media url" style="text;html=1;align=center;verticalAlign=middle;resizable=0;points=[];autosize=1;strokeColor=none;fillColor=none;" parent="1" vertex="1">
          <mxGeometry x="336" y="450" width="93" height="40" as="geometry" />
        </mxCell>
        <mxCell id="ezqPZjXfEJtGR1s8z3-x-23" style="edgeStyle=orthogonalEdgeStyle;rounded=0;orthogonalLoop=1;jettySize=auto;html=1;exitX=1;exitY=1;exitDx=0;exitDy=0;entryX=0.5;entryY=0;entryDx=0;entryDy=0;" parent="1" source="ezqPZjXfEJtGR1s8z3-x-12" target="ezqPZjXfEJtGR1s8z3-x-25" edge="1">
          <mxGeometry relative="1" as="geometry">
            <mxPoint x="669" y="428" as="sourcePoint" />
          </mxGeometry>
        </mxCell>
        <mxCell id="ezqPZjXfEJtGR1s8z3-x-25" value="Cloud" style="shape=partialRectangle;whiteSpace=wrap;html=1;left=0;right=0;fillColor=none;rounded=0;strokeColor=default;fontFamily=Helvetica;fontSize=12;fontColor=default;" parent="1" vertex="1">
          <mxGeometry x="525" y="455.5" width="67" height="29" as="geometry" />
        </mxCell>
        <mxCell id="ezqPZjXfEJtGR1s8z3-x-27" value="media url" style="text;html=1;align=center;verticalAlign=middle;resizable=0;points=[];autosize=1;strokeColor=none;fillColor=none;" parent="1" vertex="1">
          <mxGeometry x="493" y="428" width="67" height="26" as="geometry" />
        </mxCell>
        <mxCell id="ezqPZjXfEJtGR1s8z3-x-29" value="Send Email System" style="ellipse;whiteSpace=wrap;html=1;aspect=fixed;" parent="1" vertex="1">
          <mxGeometry x="480" y="240" width="80" height="80" as="geometry" />
        </mxCell>
        <mxCell id="ezqPZjXfEJtGR1s8z3-x-40" value="email" style="text;html=1;align=center;verticalAlign=middle;resizable=0;points=[];autosize=1;strokeColor=none;fillColor=none;" parent="1" vertex="1">
          <mxGeometry x="469" y="338" width="47" height="26" as="geometry" />
        </mxCell>
      </root>
    </mxGraphModel>
  </diagram>
</mxfile>
